# ProBuilder 6.0.5
# https://unity3d.com/unity/features/worldbuilding/probuilder
# 24/03/2025 05:32:07 p. m.

mtllib ./DoorFrame.mtl
o DoorFrame

g DoorFrame
v 0.075 0 -0.3
v -0.075 0 -0.3
v 0.075 0.9 -0.3
v -0.075 0.9 -0.3
v -0.075 0 -0.35
v -0.075 0.9 -0.35
v 0.075 0 -0.35
v 0.075 0.9 -0.35
v 0.075 1 -0.3
v -0.075 1 -0.3
v 0.075 1 -0.35
v -0.075 1 -0.35
v 0.075 0.9 0.35
v -0.075 0.9 0.35
v 0.075 1 0.35
v -0.075 1 0.35
v 0.075 0.9 0.3
v -0.075 0.9 0.3
v 0.075 1 0.3
v -0.075 1 0.3
v 0.075 0 0.3
v -0.075 0 0.3
v 0.075 0 0.35
v -0.075 0 0.35

vt 0.15 0.1
vt 0 0.1
vt 0.15 1
vt 0 1
vt 0.05000001 0.1
vt 0.05000001 1
vt 0 0.9999999
vt 0.15 0.9999999
vt 0 0.9499999
vt 0.15 0.9499999
vt 0.15 0.9
vt 0 0.9
vt 0.05000001 0.9
vt 0.15 0.4
vt 0 0.4
vt 0.6 1
vt 0.6 0.9

vn 0 0 1
vn -1 0 0
vn 0 0 -1
vn 1 0 0
vn 0 1 0
vn 0 -1 0

usemtl ProBuilderDefault
f 3/3/1 4/4/1 2/2/1 1/1/1
f 4/6/2 6/4/2 5/2/2 2/5/2
f 6/3/3 8/4/3 7/2/3 5/1/3
f 8/6/4 3/4/4 1/2/4 7/5/4
f 11/9/5 12/10/5 10/8/5 9/7/5
f 1/8/6 2/7/6 5/9/6 7/10/6
f 15/3/1 16/4/1 14/12/1 13/11/1
f 11/6/4 9/4/4 3/12/4 8/13/4
f 10/6/2 12/4/2 6/12/2 4/13/2
f 12/3/3 11/4/3 8/12/3 6/11/3
f 17/3/6 18/4/6 4/15/6 3/14/6
f 19/4/4 17/12/4 3/17/4 9/16/4
f 18/17/2 20/16/2 10/4/2 4/12/2
f 20/3/5 19/4/5 9/15/5 10/14/5
f 23/3/6 24/4/6 22/9/6 21/10/6
f 15/4/4 13/12/4 17/13/4 19/6/4
f 14/13/2 16/6/2 20/4/2 18/12/2
f 16/3/5 15/4/5 19/9/5 20/10/5
f 21/2/3 22/1/3 18/3/3 17/4/3
f 23/2/4 21/5/4 17/6/4 13/4/4
f 22/2/2 24/5/2 14/6/2 18/4/2
f 24/2/1 23/1/1 13/3/1 14/4/1

