# ProBuilder 6.0.5
# https://unity3d.com/unity/features/worldbuilding/probuilder
# 24/03/2025 05:32:39 p. m.

mtllib ./Floor.mtl
o Floor

g Floor
v 0.5 -0.25 0.5
v -0.5 -0.25 0.5
v 0.5 0 0.5
v -0.5 0 0.5
v -0.5 -0.25 -0.5
v -0.5 0 -0.5
v 0.5 -0.25 -0.5
v 0.5 0 -0.5

vt 1 0.75
vt 0 0.75
vt 1 1
vt 0 1
vt 0 0
vt 1 0

vn 0 0 1
vn -1 0 0
vn 0 0 -1
vn 1 0 0
vn 0 1 0
vn 0 -1 0

usemtl ProBuilderDefault
f 3/3/1 4/4/1 2/2/1 1/1/1
f 4/3/2 6/4/2 5/2/2 2/1/2
f 6/3/3 8/4/3 7/2/3 5/1/3
f 8/3/4 3/4/4 1/2/4 7/1/4
f 8/5/5 6/6/5 4/3/5 3/4/5
f 1/3/6 2/4/6 5/5/6 7/6/6

